REM DIRINDEX 1\2,1\3,1\4,1\6,1\5\7,1\5\8
REM DIRNAME cjc114,folder01,folder02,folder03,folder04,folder05,folder06,folder07
TITLE ""
FILE "DB4500_5th_6C_42.mp3" MP3
  TRACK 01 AUDIO
    TITLE "0:"
    INDEX 01 00:00:00
  TRACK 02 AUDIO
    TITLE "2:cjc114_4778"
    INDEX 01 00:00:01
  TRACK 03 AUDIO
    TITLE "0:"
    INDEX 01 00:01:07
  TRACK 04 AUDIO
    TITLE "3:cjc114_4779"
    INDEX 01 00:01:22
  TRACK 05 AUDIO
    TITLE "0:"
    INDEX 01 00:02:22
  TRACK 06 AUDIO
    TITLE "4:cjc114_4780"
    INDEX 01 00:02:40
  TRACK 07 AUDIO
    TITLE "0:"
    INDEX 01 00:05:10
  TRACK 08 AUDIO
    TITLE "2:cjc114_4781"
    INDEX 01 00:05:50
  TRACK 09 AUDIO
    TITLE "0:"
    INDEX 01 00:06:63
  TRACK 10 AUDIO
    TITLE "3:cjc114_4782"
    INDEX 01 00:07:03
  TRACK 11 AUDIO
    TITLE "0:"
    INDEX 01 00:08:21
  TRACK 12 AUDIO
    TITLE "4:cjc114_4783"
    INDEX 01 00:08:34
  TRACK 13 AUDIO
    TITLE "0:"
    INDEX 01 00:11:42
  TRACK 14 AUDIO
    TITLE "2:cjc114_4784"
    INDEX 01 00:12:09
  TRACK 15 AUDIO
    TITLE "0:"
    INDEX 01 00:13:26
  TRACK 16 AUDIO
    TITLE "3:cjc114_4785"
    INDEX 01 00:13:41
  TRACK 17 AUDIO
    TITLE "0:"
    INDEX 01 00:14:54
  TRACK 18 AUDIO
    TITLE "4:cjc114_4786"
    INDEX 01 00:14:68
  TRACK 19 AUDIO
    TITLE "0:"
    INDEX 01 00:19:18
  TRACK 20 AUDIO
    TITLE "2:cjc114_4787"
    INDEX 01 00:19:54
  TRACK 21 AUDIO
    TITLE "0:"
    INDEX 01 00:20:55
  TRACK 22 AUDIO
    TITLE "3:cjc114_4788"
    INDEX 01 00:20:73
  TRACK 23 AUDIO
    TITLE "0:"
    INDEX 01 00:22:11
  TRACK 24 AUDIO
    TITLE "4:cjc114_4789"
    INDEX 01 00:22:23
  TRACK 25 AUDIO
    TITLE "0:"
    INDEX 01 00:25:03
  TRACK 26 AUDIO
    TITLE "2:cjc114_4790"
    INDEX 01 00:25:39
  TRACK 27 AUDIO
    TITLE "0:"
    INDEX 01 00:26:44
  TRACK 28 AUDIO
    TITLE "3:cjc114_4791"
    INDEX 01 00:26:60
  TRACK 29 AUDIO
    TITLE "0:"
    INDEX 01 00:28:21
  TRACK 30 AUDIO
    TITLE "4:cjc114_4792"
    INDEX 01 00:28:37
  TRACK 31 AUDIO
    TITLE "0:"
    INDEX 01 00:31:63
  TRACK 32 AUDIO
    TITLE "2:cjc114_4793"
    INDEX 01 00:32:27
  TRACK 33 AUDIO
    TITLE "0:"
    INDEX 01 00:33:42
  TRACK 34 AUDIO
    TITLE "3:cjc114_4794"
    INDEX 01 00:33:58
  TRACK 35 AUDIO
    TITLE "0:"
    INDEX 01 00:34:63
  TRACK 36 AUDIO
    TITLE "4:cjc114_4795"
    INDEX 01 00:35:00
  TRACK 37 AUDIO
    TITLE "0:"
    INDEX 01 00:37:38
  TRACK 38 AUDIO
    TITLE "2:cjc114_4796"
    INDEX 01 00:38:14
  TRACK 39 AUDIO
    TITLE "0:"
    INDEX 01 00:39:25
  TRACK 40 AUDIO
    TITLE "3:cjc114_4797"
    INDEX 01 00:39:47
  TRACK 41 AUDIO
    TITLE "0:"
    INDEX 01 00:40:60
  TRACK 42 AUDIO
    TITLE "4:cjc114_4798"
    INDEX 01 00:41:06
  TRACK 43 AUDIO
    TITLE "0:"
    INDEX 01 00:45:10
  TRACK 44 AUDIO
    TITLE "2:cjc114_4799"
    INDEX 01 00:45:51
  TRACK 45 AUDIO
    TITLE "0:"
    INDEX 01 00:46:66
  TRACK 46 AUDIO
    TITLE "3:cjc114_4800"
    INDEX 01 00:47:11
  TRACK 47 AUDIO
    TITLE "0:"
    INDEX 01 00:48:32
  TRACK 48 AUDIO
    TITLE "4:cjc114_4801"
    INDEX 01 00:48:51
  TRACK 49 AUDIO
    TITLE "0:"
    INDEX 01 00:52:36
  TRACK 50 AUDIO
    TITLE "2:cjc114_4802"
    INDEX 01 00:53:06
  TRACK 51 AUDIO
    TITLE "0:"
    INDEX 01 00:53:66
  TRACK 52 AUDIO
    TITLE "3:cjc114_4803"
    INDEX 01 00:54:17
  TRACK 53 AUDIO
    TITLE "0:"
    INDEX 01 00:56:16
  TRACK 54 AUDIO
    TITLE "4:cjc114_4804"
    INDEX 01 00:56:31
  TRACK 55 AUDIO
    TITLE "0:"
    INDEX 01 01:00:12
  TRACK 56 AUDIO
    TITLE "2:cjc114_4805"
    INDEX 01 01:00:55
  TRACK 57 AUDIO
    TITLE "0:"
    INDEX 01 01:01:52
  TRACK 58 AUDIO
    TITLE "3:cjc114_4806"
    INDEX 01 01:01:74
  TRACK 59 AUDIO
    TITLE "0:"
    INDEX 01 01:03:12
  TRACK 60 AUDIO
    TITLE "4:cjc114_4807"
    INDEX 01 01:03:31
  TRACK 61 AUDIO
    TITLE "0:"
    INDEX 01 01:05:58
  TRACK 62 AUDIO
    TITLE "2:cjc114_4808"
    INDEX 01 01:06:26
  TRACK 63 AUDIO
    TITLE "0:"
    INDEX 01 01:07:37
  TRACK 64 AUDIO
    TITLE "3:cjc114_4809"
    INDEX 01 01:07:55
  TRACK 65 AUDIO
    TITLE "0:"
    INDEX 01 01:08:72
  TRACK 66 AUDIO
    TITLE "4:cjc114_4810"
    INDEX 01 01:09:16
  TRACK 67 AUDIO
    TITLE "0:"
    INDEX 01 01:11:52
  TRACK 68 AUDIO
    TITLE "2:cjc114_4811"
    INDEX 01 01:12:19
  TRACK 69 AUDIO
    TITLE "0:"
    INDEX 01 01:13:61
  TRACK 70 AUDIO
    TITLE "3:cjc114_4812"
    INDEX 01 01:14:04
  TRACK 71 AUDIO
    TITLE "0:"
    INDEX 01 01:15:29
  TRACK 72 AUDIO
    TITLE "4:cjc114_4813"
    INDEX 01 01:15:48
  TRACK 73 AUDIO
    TITLE "0:"
    INDEX 01 01:18:58
  TRACK 74 AUDIO
    TITLE "2:cjc114_4814"
    INDEX 01 01:19:27
  TRACK 75 AUDIO
    TITLE "0:"
    INDEX 01 01:20:38
  TRACK 76 AUDIO
    TITLE "3:cjc114_4815"
    INDEX 01 01:20:57
  TRACK 77 AUDIO
    TITLE "0:"
    INDEX 01 01:22:23
  TRACK 78 AUDIO
    TITLE "4:cjc114_4816"
    INDEX 01 01:22:44
  TRACK 79 AUDIO
    TITLE "0:"
    INDEX 01 01:26:42
